<svg xmlns="http://www.w3.org/2000/svg" viewBox="0 0 512 512" role="img" aria-labelledby="title">
  <title>Gust wind logo tertiary fade</title>
  <defs>
    <linearGradient id="gustTertiaryFade" x1="84" y1="92" x2="430" y2="410" gradientUnits="userSpaceOnUse">
      <stop offset="0%" stop-color="#fd81a8" />
      <stop offset="55%" stop-color="#d6a0ff" />
      <stop offset="100%" stop-color="#8455ef" />
    </linearGradient>
  </defs>
  <g fill="none" stroke="url(#gustTertiaryFade)" stroke-width="40" stroke-linecap="butt" stroke-linejoin="round" transform="translate(-26 11)">
    <path d="M108 154H268C304 154 332 126 332 92C332 58 304 30 270 30C240 30 214 48 196 78" />
    <path d="M76 252H126" />
    <path d="M156 252H424C460 252 488 224 488 190C488 156 460 128 426 128C396 128 370 146 352 176" />
    <path d="M156 348H360A56 56 0 1 1 360 460" />
  </g>
</svg>
